<svg width="35" height="41" viewBox="0 0 35 41" fill="none" xmlns="http://www.w3.org/2000/svg">
<path d="M1.61148 40.9998C1.40094 41.0043 1.19191 40.9452 0.996527 40.8261C0.801149 40.7069 0.623323 40.53 0.473383 40.3056C0.323444 40.0812 0.204381 39.8138 0.123115 39.5189C0.0418492 39.2241 0 38.9076 0 38.588C0 38.2684 0.0418492 37.952 0.123115 37.6571C0.204381 37.3623 0.323444 37.0949 0.473383 36.8705C0.623323 36.6461 0.801149 36.4692 0.996527 36.35C1.19191 36.2308 1.40094 36.1718 1.61148 36.1763H33.3885C33.5991 36.1718 33.8081 36.2308 34.0035 36.35C34.1989 36.4692 34.3767 36.6461 34.5266 36.8705C34.6766 37.0949 34.7956 37.3623 34.8769 37.6571C34.9582 37.952 35 38.2684 35 38.588C35 38.9076 34.9582 39.2241 34.8769 39.5189C34.7956 39.8138 34.6766 40.0812 34.5266 40.3056C34.3767 40.53 34.1989 40.7069 34.0035 40.8261C33.8081 40.9452 33.5991 41.0043 33.3885 40.9998H1.61148ZM1.61148 22.9117C1.40094 22.9163 1.19191 22.8572 0.996527 22.738C0.801149 22.6189 0.623323 22.4419 0.473383 22.2175C0.323444 21.9931 0.204381 21.7257 0.123115 21.4309C0.0418492 21.136 0 20.8196 0 20.5C0 20.1804 0.0418492 19.864 0.123115 19.5691C0.204381 19.2743 0.323444 19.0069 0.473383 18.7825C0.623323 18.5581 0.801149 18.3811 0.996527 18.262C1.19191 18.1428 1.40094 18.0837 1.61148 18.0883H33.3885C33.5991 18.0837 33.8081 18.1428 34.0035 18.262C34.1989 18.3811 34.3767 18.5581 34.5266 18.7825C34.6766 19.0069 34.7956 19.2743 34.8769 19.5691C34.9582 19.864 35 20.1804 35 20.5C35 20.8196 34.9582 21.136 34.8769 21.4309C34.7956 21.7257 34.6766 21.9931 34.5266 22.2175C34.3767 22.4419 34.1989 22.6189 34.0035 22.738C33.8081 22.8572 33.5991 22.9163 33.3885 22.9117H1.61148ZM1.61148 4.82372C1.40094 4.82824 1.19191 4.76919 0.996527 4.65002C0.801149 4.53085 0.623323 4.35392 0.473383 4.12952C0.323444 3.90512 0.204381 3.63773 0.123115 3.34288C0.0418492 3.04802 0 2.7316 0 2.41198C0 2.09237 0.0418492 1.77594 0.123115 1.48108C0.204381 1.18623 0.323444 0.918839 0.473383 0.694439C0.623323 0.470039 0.801149 0.293114 0.996527 0.173943C1.19191 0.0547676 1.40094 -0.00427628 1.61148 0.000244141H33.3885C33.5991 -0.00427628 33.8081 0.0547676 34.0035 0.173943C34.1989 0.293114 34.3767 0.470039 34.5266 0.694439C34.6766 0.918839 34.7956 1.18623 34.8769 1.48108C34.9582 1.77594 35 2.09237 35 2.41198C35 2.7316 34.9582 3.04802 34.8769 3.34288C34.7956 3.63773 34.6766 3.90512 34.5266 4.12952C34.3767 4.35392 34.1989 4.53085 34.0035 4.65002C33.8081 4.76919 33.5991 4.82824 33.3885 4.82372H1.61148Z" fill="white"/>
</svg>
